<svg id="kity_svg_6" xmlns="http://www.w3.org/2000/svg" xmlns:xlink="http://www.w3.org/1999/xlink" version="1.1" width="1038" height="443" style="background: rgb(251, 251, 251); visibility: visible;" viewBox="0 0 1038 443"><defs id="kity_defs_7"><linearGradient id="kity_linearGradient_17" x1="0" y1="0" x2="0" y2="1"><stop id="kity_stop_18" offset="0" stop-color="rgb(255, 255, 255)"></stop><stop id="kity_stop_19" offset="1" stop-color="rgb(204, 204, 204)"></stop></linearGradient><marker id="kity_marker_4" orient="auto" refX="6" refY="0" viewBox="-7 -7 14 14" markerWidth="7" markerHeight="7" markerUnits="userSpaceOnUse"><path id="kity_path_5" fill="rgb(115, 161, 191)" stroke="none" d="M6,0A6,6,0,1,1,-6,0A6,6,0,1,1,6,0"></path></marker><marker id="kity_marker_2" orient="auto" refX="6" refY="0" viewBox="-7 -7 14 14" markerWidth="7" markerHeight="7" markerUnits="userSpaceOnUse"><path id="kity_path_3" fill="rgb(115, 161, 191)" stroke="none" d="M6,0A6,6,0,1,1,-6,0A6,6,0,1,1,6,0"></path></marker></defs><g id="kity_g_8"><g id="minder1" text-rendering="geometricPrecision"><g id="minder_connect_group1"><path id="kity_path_31" fill="none" stroke="rgb(115, 161, 191)" stroke-width="1" d="M525.5,225.5A61,170,0,0,1,586.5,55.5"></path><path id="kity_path_33" fill="none" stroke="rgb(115, 161, 191)" stroke-width="1" d="M709.5,55.5C712.5,55.5,712.5,41.5,715.5,41.5L911.5,41.5"></path><path id="kity_path_35" fill="none" stroke="rgb(115, 161, 191)" stroke-width="1" d="M709.5,55.5C712.5,55.5,712.5,67.5,715.5,67.5L872.5,67.5"></path><path id="kity_path_37" fill="none" stroke="rgb(115, 161, 191)" stroke-width="1" d="M709.5,55.5C712.5,55.5,712.5,93.5,715.5,93.5L935.5,93.5"></path><path id="kity_path_39" fill="none" stroke="rgb(115, 161, 191)" stroke-width="1" d="M525.5,225.5A61,7.5,0,0,1,586.5,218"></path><path id="kity_path_41" fill="none" stroke="rgb(115, 161, 191)" stroke-width="1" d="M710.5,218C713.5,218,713.5,180.5,716.5,180.5L825.5,180.5"></path><path id="kity_path_43" fill="none" stroke="rgb(115, 161, 191)" stroke-width="1" d="M825.5,180.5C828.5,180.5,828.5,145.5,831.5,145.5L998.5,145.5"></path><path id="kity_path_45" fill="none" stroke="rgb(115, 161, 191)" stroke-width="1" d="M825.5,180.5C828.5,180.5,828.5,171.5,831.5,171.5L972.5,171.5"></path><path id="kity_path_47" fill="none" stroke="rgb(115, 161, 191)" stroke-width="1" d="M825.5,180.5C828.5,180.5,828.5,215.5,831.5,215.5L954.5,215.5"></path><path id="kity_path_49" fill="none" stroke="rgb(115, 161, 191)" stroke-width="1" d="M710.5,218C713.5,218,713.5,298.5,716.5,298.5L846.5,298.5"></path><path id="kity_path_51" fill="none" stroke="rgb(115, 161, 191)" stroke-width="1" d="M846.5,298.5C849.5,298.5,849.5,259.5,852.5,259.5L1018.5,259.5"></path><path id="kity_path_53" fill="none" stroke="rgb(115, 161, 191)" stroke-width="1" d="M846.5,298.5C849.5,298.5,849.5,285.5,852.5,285.5L981.5,285.5"></path><path id="kity_path_55" fill="none" stroke="rgb(115, 161, 191)" stroke-width="1" d="M846.5,298.5C849.5,298.5,849.5,311.5,852.5,311.5L1009.5,311.5"></path><path id="kity_path_57" fill="none" stroke="rgb(115, 161, 191)" stroke-width="1" d="M846.5,298.5C849.5,298.5,849.5,337.5,852.5,337.5L941.5,337.5"></path><path id="kity_path_59" fill="none" stroke="rgb(115, 161, 191)" stroke-width="1" d="M525.5,225.5A61,159.5,0,0,0,586.5,385"></path><path id="kity_path_61" fill="none" stroke="rgb(115, 161, 191)" stroke-width="1" d="M525.5,225.5A31,63.5,0,0,0,494.5,162"></path><path id="kity_path_63" fill="none" stroke="rgb(115, 161, 191)" stroke-width="1" d="M525.5,225.5A36,54,0,0,1,489.5,279.5"></path><path id="kity_path_65" fill="none" stroke="rgb(115, 161, 191)" stroke-width="1" d="M525.5,225.5A36,103,0,0,1,489.5,328.5"></path><path id="kity_path_306" fill="none" stroke="rgb(115, 161, 191)" stroke-width="1" d="M716.5,385C719.5,385,719.5,371.5,722.5,371.5L885.5,371.5"></path><path id="kity_path_307" fill="none" stroke="rgb(115, 161, 191)" stroke-width="1" d="M716.5,385C719.5,385,719.5,397.5,722.5,397.5L892.5,397.5"></path><path id="kity_path_308" fill="none" stroke="rgb(115, 161, 191)" stroke-width="1" d="M716.5,385C719.5,385,719.5,423.5,722.5,423.5L895.5,423.5"></path><path id="kity_path_346" fill="none" stroke="rgb(115, 161, 191)" stroke-width="1" d="M213.5,135.5C210.5,135.5,210.5,113.5,207.5,113.5L114.5,113.5"></path><path id="kity_path_347" fill="none" stroke="rgb(115, 161, 191)" stroke-width="1" d="M213.5,135.5C210.5,135.5,210.5,139.5,207.5,139.5L118.5,139.5"></path><path id="kity_path_348" fill="none" stroke="rgb(115, 161, 191)" stroke-width="1" d="M366.5,162C363.5,162,363.5,135.5,360.5,135.5L213.5,135.5"></path><path id="kity_path_349" fill="none" stroke="rgb(115, 161, 191)" stroke-width="1" d="M229.5,231.5C226.5,231.5,226.5,183.5,223.5,183.5L81.5,183.5"></path><path id="kity_path_350" fill="none" stroke="rgb(115, 161, 191)" stroke-width="1" d="M229.5,231.5C226.5,231.5,226.5,227.5,223.5,227.5L20.5,227.5"></path><path id="kity_path_351" fill="none" stroke="rgb(115, 161, 191)" stroke-width="1" d="M229.5,231.5C226.5,231.5,226.5,253.5,223.5,253.5L106.5,253.5"></path><path id="kity_path_352" fill="none" stroke="rgb(115, 161, 191)" stroke-width="1" d="M229.5,231.5C226.5,231.5,226.5,279.5,223.5,279.5L85.5,279.5"></path><path id="kity_path_353" fill="none" stroke="rgb(115, 161, 191)" stroke-width="1" d="M366.5,162C363.5,162,363.5,231.5,360.5,231.5L229.5,231.5"></path></g><g id="minder_node1"><path id="node_outline1" fill="rgb(115, 161, 191)" stroke="rgb(115, 161, 191)" d="M485.5,211.5h80a5,5,0,0,1,5,5v18a5,5,0,0,1,-5,5h-80a5,5,0,0,1,-5,-5v-18a5,5,0,0,1,5,-5z" stroke-width="3"></path><g id="node_text1" fill="white"><text id="kity_text_22" text-rendering="inherit" font-size="16" dy=".8em" y="215.09999990463257" x="492.5">OpenHA</text></g></g><g id="kity_g_14" display="none"><path id="kity_path_15" fill="rgba(0, 92, 153, 0.5)" stroke="none" d="M279.5,107.5h183v8h-183z"></path><path id="kity_path_16" fill="none" stroke="rgb(0, 76, 128)" d="M279.5,115.5L462.5,115.5" stroke-width="1"></path></g><g id="minder_node2"><g id="node_expander4" style="cursor: pointer;"><path id="kity_path_134" fill="white" stroke="gray" d="M587.5000034570694,55.49999493360522A6,6,0,1,1,575.5000034570694,55.49999493360522A6,6,0,1,1,587.5000034570694,55.49999493360522"></path><path id="kity_path_135" fill="none" stroke="gray" d="M577.0000034570694,55.49999493360522L586.0000034570694,55.49999493360522"></path></g><path id="node_outline5" fill="rgb(238, 243, 246)" stroke="rgb(115, 161, 191)" d="M591.5000034570694,42.49999493360522h115a3,3,0,0,1,3,3v20a3,3,0,0,1,-3,3h-115a3,3,0,0,1,-3,-3v-20a3,3,0,0,1,3,-3z" stroke-width="1"></path><g id="node_text5" fill="black"><text id="kity_text_73" text-rendering="inherit" font-size="14" dy=".8em" y="46.399995028972654" x="608.5000034570694">核心库(core)</text></g></g><g id="minder_node3"><g id="node_expander1" style="cursor: pointer;" display="none"><path id="kity_path_125" fill="white" stroke="gray" d="M725.5000070929527,29.499994158744812A6,6,0,1,1,713.5000070929527,29.499994158744812A6,6,0,1,1,725.5000070929527,29.499994158744812"></path><path id="kity_path_126" fill="none" stroke="gray"></path></g><path id="node_outline2" fill="none" stroke="none" d="M730.5000070929527,20.499994158744812h176a5,5,0,0,1,5,5v8a5,5,0,0,1,-5,5h-176a5,5,0,0,1,-5,-5v-8a5,5,0,0,1,5,-5z"></path><g id="node_text2" fill="black"><text id="kity_text_67" text-rendering="inherit" font-size="12" dy=".8em" y="21.699994206428528" x="730.5000070929527">异常处理(exceptional handling)</text></g></g><g id="minder_node4"><g id="node_expander2" style="cursor: pointer;" display="none"><path id="kity_path_128" fill="white" stroke="gray" d="M725.5000070929527,55.49999493360522A6,6,0,1,1,713.5000070929527,55.49999493360522A6,6,0,1,1,725.5000070929527,55.49999493360522"></path><path id="kity_path_129" fill="none" stroke="gray"></path></g><path id="node_outline3" fill="none" stroke="none" d="M730.5000070929527,46.49999493360522h137a5,5,0,0,1,5,5v8a5,5,0,0,1,-5,5h-137a5,5,0,0,1,-5,-5v-8a5,5,0,0,1,5,-5z"></path><g id="node_text3" fill="black"><text id="kity_text_69" text-rendering="inherit" font-size="12" dy=".8em" y="47.69999498128894" x="730.5000070929527">数据结构(data structure)</text></g></g><g id="minder_node5"><g id="node_expander3" style="cursor: pointer;" display="none"><path id="kity_path_131" fill="white" stroke="gray" d="M725.5000070929527,81.49999570846558A6,6,0,1,1,713.5000070929527,81.49999570846558A6,6,0,1,1,725.5000070929527,81.49999570846558"></path><path id="kity_path_132" fill="none" stroke="gray"></path></g><path id="node_outline4" fill="none" stroke="none" d="M730.5000070929527,72.49999570846558h200a5,5,0,0,1,5,5v8a5,5,0,0,1,-5,5h-200a5,5,0,0,1,-5,-5v-8a5,5,0,0,1,5,-5z"></path><g id="node_text4" fill="black"><text id="kity_text_71" text-rendering="inherit" font-size="12" dy=".8em" y="73.69999575614929" x="730.5000070929527">其他基础函数(other basic functions)</text></g></g><g id="minder_node6"><g id="node_expander14" style="cursor: pointer;"><path id="kity_path_164" fill="white" stroke="gray" d="M587.5000034570694,217.99999976158142A6,6,0,1,1,575.5000034570694,217.99999976158142A6,6,0,1,1,587.5000034570694,217.99999976158142"></path><path id="kity_path_165" fill="none" stroke="gray" d="M577.0000034570694,217.99999976158142L586.0000034570694,217.99999976158142"></path></g><path id="node_outline15" fill="rgb(238, 243, 246)" stroke="rgb(115, 161, 191)" d="M591.5000034570694,194.49999976158142h116a3,3,0,0,1,3,3v41a3,3,0,0,1,-3,3h-116a3,3,0,0,1,-3,-3v-41a3,3,0,0,1,3,-3z" stroke-width="1"></path><g id="node_text15" fill="black"><text id="kity_text_97" text-rendering="inherit" font-size="14" dy=".8em" y="197.89999985694885" x="608.5000034570694">数据处理</text><text id="kity_text_312" text-rendering="inherit" font-size="14" dy=".8em" y="218.89999985694885" x="608.5000034570694">(processing)</text></g></g><g id="minder_node7"><g id="node_expander8" style="cursor: pointer;"><path id="kity_path_146" fill="white" stroke="gray" d="M726.500007122755,159.49999803304672A6,6,0,1,1,714.500007122755,159.49999803304672A6,6,0,1,1,726.500007122755,159.49999803304672"></path><path id="kity_path_147" fill="none" stroke="gray" d="M716.000007122755,159.49999803304672L725.000007122755,159.49999803304672"></path></g><path id="node_outline9" fill="none" stroke="none" d="M731.500007122755,141.49999803304672h89a5,5,0,0,1,5,5v26a5,5,0,0,1,-5,5h-89a5,5,0,0,1,-5,-5v-26a5,5,0,0,1,5,-5z" stroke-width="3"></path><g id="node_text9" fill="black"><text id="kity_text_83" text-rendering="inherit" font-size="12" dy=".8em" y="142.69999808073044" x="731.500007122755">预处理</text><text id="kity_text_84" text-rendering="inherit" font-size="12" dy=".8em" y="160.69999808073044" x="731.500007122755">(preprocessing)</text></g></g><g id="minder_node8"><g id="node_expander5" style="cursor: pointer;" display="none"><path id="kity_path_137" fill="white" stroke="gray" d="M841.5000105500221,124.49999698996544A6,6,0,1,1,829.5000105500221,124.49999698996544A6,6,0,1,1,841.5000105500221,124.49999698996544"></path><path id="kity_path_138" fill="none" stroke="gray"></path></g><path id="node_outline6" fill="none" stroke="none" d="M846.5000105500221,106.49999698996544h147a5,5,0,0,1,5,5v26a5,5,0,0,1,-5,5h-147a5,5,0,0,1,-5,-5v-26a5,5,0,0,1,5,-5z" stroke-width="3"></path><g id="node_text6" fill="black"><text id="kity_text_75" text-rendering="inherit" font-size="12" dy=".8em" y="107.69999703764915" x="846.5000105500221">对齐、插值</text><text id="kity_text_76" text-rendering="inherit" font-size="12" dy=".8em" y="125.69999703764915" x="846.5000105500221">(alignment, interpolation)</text></g></g><g id="minder_node9"><g id="node_expander6" style="cursor: pointer;" display="none"><path id="kity_path_140" fill="white" stroke="gray" d="M841.5000105500221,159.49999803304672A6,6,0,1,1,829.5000105500221,159.49999803304672A6,6,0,1,1,841.5000105500221,159.49999803304672"></path><path id="kity_path_141" fill="none" stroke="gray"></path></g><path id="node_outline7" fill="none" stroke="none" d="M846.5000105500221,150.49999803304672h121a5,5,0,0,1,5,5v8a5,5,0,0,1,-5,5h-121a5,5,0,0,1,-5,-5v-8a5,5,0,0,1,5,-5z"></path><g id="node_text7" fill="black"><text id="kity_text_78" text-rendering="inherit" font-size="12" dy=".8em" y="151.69999808073044" x="846.5000105500221">去噪(noise reduction)</text></g></g><g id="minder_node10"><g id="node_expander7" style="cursor: pointer;" display="none"><path id="kity_path_143" fill="white" stroke="gray" d="M841.5000105500221,194.499999076128A6,6,0,1,1,829.5000105500221,194.499999076128A6,6,0,1,1,841.5000105500221,194.499999076128"></path><path id="kity_path_144" fill="none" stroke="gray"></path></g><path id="node_outline8" fill="none" stroke="none" d="M846.5000105500221,176.499999076128h103a5,5,0,0,1,5,5v26a5,5,0,0,1,-5,5h-103a5,5,0,0,1,-5,-5v-26a5,5,0,0,1,5,-5z"></path><g id="node_text8" fill="black"><text id="kity_text_80" text-rendering="inherit" font-size="12" dy=".8em" y="177.69999912381172" x="846.5000105500221">离群点检测</text><text id="kity_text_81" text-rendering="inherit" font-size="12" dy=".8em" y="195.69999912381172" x="846.5000105500221">(outlier detection)</text></g></g><g id="minder_node11"><g id="node_expander13" style="cursor: pointer;"><path id="kity_path_161" fill="white" stroke="gray" d="M726.500007122755,277.50000154972076A6,6,0,1,1,714.500007122755,277.50000154972076A6,6,0,1,1,726.500007122755,277.50000154972076"></path><path id="kity_path_162" fill="none" stroke="gray" d="M716.000007122755,277.50000154972076L725.000007122755,277.50000154972076"></path></g><path id="node_outline14" fill="none" stroke="none" d="M731.500007122755,259.50000154972076h110a5,5,0,0,1,5,5v26a5,5,0,0,1,-5,5h-110a5,5,0,0,1,-5,-5v-26a5,5,0,0,1,5,-5z"></path><g id="node_text14" fill="black"><text id="kity_text_94" text-rendering="inherit" font-size="12" dy=".8em" y="260.7000015974045" x="731.500007122755">特征提取</text><text id="kity_text_95" text-rendering="inherit" font-size="12" dy=".8em" y="278.7000015974045" x="731.500007122755">(feature extraction)</text></g></g><g id="minder_node12"><g id="node_expander9" style="cursor: pointer;" display="none"><path id="kity_path_149" fill="white" stroke="gray" d="M862.5000111758709,238.5000003874302A6,6,0,1,1,850.5000111758709,238.5000003874302A6,6,0,1,1,862.5000111758709,238.5000003874302"></path><path id="kity_path_150" fill="none" stroke="gray"></path></g><path id="node_outline10" fill="none" stroke="none" d="M867.5000111758709,220.5000003874302h146a5,5,0,0,1,5,5v26a5,5,0,0,1,-5,5h-146a5,5,0,0,1,-5,-5v-26a5,5,0,0,1,5,-5z" stroke-width="3"></path><g id="node_text10" fill="black"><text id="kity_text_86" text-rendering="inherit" font-size="12" dy=".8em" y="221.7000004351139" x="867.5000111758709">统计特征</text><text id="kity_text_313" text-rendering="inherit" font-size="12" dy=".8em" y="239.7000004351139" x="867.5000111758709">(statistical characteristics)</text></g></g><g id="minder_node13"><g id="node_expander10" style="cursor: pointer;" display="none"><path id="kity_path_152" fill="white" stroke="gray" d="M862.5000111758709,273.5000014305115A6,6,0,1,1,850.5000111758709,273.5000014305115A6,6,0,1,1,862.5000111758709,273.5000014305115"></path><path id="kity_path_153" fill="none" stroke="gray"></path></g><path id="node_outline11" fill="none" stroke="none" d="M867.5000111758709,264.5000014305115h109a5,5,0,0,1,5,5v8a5,5,0,0,1,-5,5h-109a5,5,0,0,1,-5,-5v-8a5,5,0,0,1,5,-5z"></path><g id="node_text11" fill="black"><text id="kity_text_88" text-rendering="inherit" font-size="12" dy=".8em" y="265.7000014781952" x="867.5000111758709">时域(time domain)&#xa0;</text></g></g><g id="minder_node14"><g id="node_expander11" style="cursor: pointer;" display="none"><path id="kity_path_155" fill="white" stroke="gray" d="M862.5000111758709,299.50000220537186A6,6,0,1,1,850.5000111758709,299.50000220537186A6,6,0,1,1,862.5000111758709,299.50000220537186"></path><path id="kity_path_156" fill="none" stroke="gray"></path></g><path id="node_outline12" fill="none" stroke="none" d="M867.5000111758709,290.50000220537186h137a5,5,0,0,1,5,5v8a5,5,0,0,1,-5,5h-137a5,5,0,0,1,-5,-5v-8a5,5,0,0,1,5,-5z"></path><g id="node_text12" fill="black"><text id="kity_text_90" text-rendering="inherit" font-size="12" dy=".8em" y="291.7000022530556" x="867.5000111758709">频域(frequency domain)</text></g></g><g id="minder_node15"><g id="node_expander12" style="cursor: pointer;" display="none"><path id="kity_path_158" fill="white" stroke="gray" d="M862.5000111758709,325.50000298023224A6,6,0,1,1,850.5000111758709,325.50000298023224A6,6,0,1,1,862.5000111758709,325.50000298023224"></path><path id="kity_path_159" fill="none" stroke="gray"></path></g><path id="node_outline13" fill="none" stroke="none" d="M867.5000111758709,316.50000298023224h69a5,5,0,0,1,5,5v8a5,5,0,0,1,-5,5h-69a5,5,0,0,1,-5,-5v-8a5,5,0,0,1,5,-5z"></path><g id="node_text13" fill="black"><text id="kity_text_92" text-rendering="inherit" font-size="12" dy=".8em" y="317.70000302791595" x="867.5000111758709">其他(others)</text></g></g><g id="minder_node16" opacity="1"><g id="node_expander15" style="cursor: pointer;"><path id="kity_path_167" fill="white" stroke="gray" d="M587.5000034570694,385.00000473856926A6,6,0,1,1,575.5000034570694,385.00000473856926A6,6,0,1,1,587.5000034570694,385.00000473856926"></path><path id="kity_path_168" fill="none" stroke="gray" d="M577.0000034570694,385.00000473856926L586.0000034570694,385.00000473856926"></path></g><path id="node_outline16" fill="rgb(238, 243, 246)" stroke="rgb(115, 161, 191)" d="M591.5000034570694,361.50000473856926h122a3,3,0,0,1,3,3v41a3,3,0,0,1,-3,3h-122a3,3,0,0,1,-3,-3v-41a3,3,0,0,1,3,-3z" stroke-width="1"></path><g id="node_text16" fill="black"><text id="kity_text_99" text-rendering="inherit" font-size="14" dy=".8em" y="364.9000048339367" x="608.5000034570694">健康预测</text><text id="kity_text_310" text-rendering="inherit" font-size="14" dy=".8em" y="385.9000048339367" x="608.5000034570694">(prognostics)</text></g></g><g id="minder_node17" opacity="1"><g id="node_expander16" style="cursor: pointer;"><path id="kity_path_170" fill="white" stroke="gray" d="M505.4999968409538,161.99999809265137A6,6,0,1,1,493.4999968409538,161.99999809265137A6,6,0,1,1,505.4999968409538,161.99999809265137"></path><path id="kity_path_171" fill="none" stroke="gray" d="M494.9999968409538,161.99999809265137L503.9999968409538,161.99999809265137"></path></g><path id="node_outline17" fill="rgb(238, 243, 246)" stroke="rgb(115, 161, 191)" d="M369.4999968409538,138.49999809265137h120a3,3,0,0,1,3,3v41a3,3,0,0,1,-3,3h-120a3,3,0,0,1,-3,-3v-41a3,3,0,0,1,3,-3z" stroke-width="1"></path><g id="node_text17" fill="black"><text id="kity_text_101" text-rendering="inherit" font-size="14" dy=".8em" y="141.8999981880188" x="386.4999968409538">健康评估</text><text id="kity_text_309" text-rendering="inherit" font-size="14" dy=".8em" y="162.8999981880188" x="386.4999968409538">(assessment)</text></g></g><g id="minder_node18" opacity="1"><g id="node_expander17" style="cursor: pointer;" display="none"><path id="kity_path_173" fill="white" stroke="gray" d="M500.4999965131283,279.5000016093254A6,6,0,1,1,488.4999965131283,279.5000016093254A6,6,0,1,1,500.4999965131283,279.5000016093254"></path><path id="kity_path_174" fill="none" stroke="gray"></path></g><path id="node_outline18" fill="rgb(238, 243, 246)" stroke="rgb(115, 161, 191)" d="M358.4999965131283,266.5000016093254h126a3,3,0,0,1,3,3v20a3,3,0,0,1,-3,3h-126a3,3,0,0,1,-3,-3v-20a3,3,0,0,1,3,-3z" stroke-width="1"></path><g id="node_text18" fill="black"><text id="kity_text_103" text-rendering="inherit" font-size="14" dy=".8em" y="270.40000170469284" x="375.4999965131283">教程(tutorials)</text></g></g><g id="minder_node19" opacity="1"><g id="node_expander18" style="cursor: pointer;" display="none"><path id="kity_path_176" fill="white" stroke="gray" d="M500.4999960362911,328.5000030696392A6,6,0,1,1,488.4999960362911,328.5000030696392A6,6,0,1,1,500.4999960362911,328.5000030696392"></path><path id="kity_path_177" fill="none" stroke="gray"></path></g><path id="node_outline19" fill="rgb(238, 243, 246)" stroke="rgb(115, 161, 191)" d="M342.4999960362911,315.5000030696392h142a3,3,0,0,1,3,3v20a3,3,0,0,1,-3,3h-142a3,3,0,0,1,-3,-3v-20a3,3,0,0,1,3,-3z" stroke-width="1"></path><g id="node_text19" fill="black"><text id="kity_text_105" text-rendering="inherit" font-size="14" dy=".8em" y="319.40000316500664" x="359.4999960362911">数据集(datasets)</text></g></g><g id="kity_g_12" display="none"><path id="kity_path_13" fill="none" stroke="rgb(66, 94, 112)" d="M282.5,120.5h177a3,3,0,0,1,3,3v20a3,3,0,0,1,-3,3h-177a3,3,0,0,1,-3,-3v-20a3,3,0,0,1,3,-3z" stroke-width="5"></path></g><g id="minder_node20"><g id="node_expander19" style="cursor: pointer;" display="none"><path id="kity_path_184" fill="white" stroke="gray" d="M732.500007301569,359.5000039935112A6,6,0,1,1,720.500007301569,359.5000039935112A6,6,0,1,1,732.500007301569,359.5000039935112"></path><path id="kity_path_185" fill="none" stroke="gray"></path></g><path id="node_outline20" fill="none" stroke="none" d="M737.500007301569,350.5000039935112h143a5,5,0,0,1,5,5v8a5,5,0,0,1,-5,5h-143a5,5,0,0,1,-5,-5v-8a5,5,0,0,1,5,-5z" stroke-width="3"></path><g id="node_text20" fill="black"><text id="kity_text_181" text-rendering="inherit" font-size="12" dy=".8em" y="351.7000040411949" x="737.500007301569">物理模型(physical model)</text></g></g><g id="minder_node21"><g id="node_expander20" style="cursor: pointer;" display="none"><path id="kity_path_192" fill="white" stroke="gray" d="M732.500007301569,385.5000047683716A6,6,0,1,1,720.500007301569,385.5000047683716A6,6,0,1,1,732.500007301569,385.5000047683716"></path><path id="kity_path_193" fill="none" stroke="gray"></path></g><path id="node_outline21" fill="none" stroke="none" d="M737.500007301569,376.5000047683716h150a5,5,0,0,1,5,5v8a5,5,0,0,1,-5,5h-150a5,5,0,0,1,-5,-5v-8a5,5,0,0,1,5,-5z" stroke-width="3"></path><g id="node_text21" fill="black"><text id="kity_text_189" text-rendering="inherit" font-size="12" dy=".8em" y="377.7000048160553" x="737.500007301569">统计模型(statistical model)</text></g></g><g id="minder_node22"><g id="node_expander21" style="cursor: pointer;" display="none"><path id="kity_path_200" fill="white" stroke="gray" d="M732.500007301569,411.50000554323196A6,6,0,1,1,720.500007301569,411.50000554323196A6,6,0,1,1,732.500007301569,411.50000554323196"></path><path id="kity_path_201" fill="none" stroke="gray"></path></g><path id="node_outline22" fill="none" stroke="none" d="M737.500007301569,402.50000554323196h153a5,5,0,0,1,5,5v8a5,5,0,0,1,-5,5h-153a5,5,0,0,1,-5,-5v-8a5,5,0,0,1,5,-5z" stroke-width="3"></path><g id="node_text22" fill="black"><text id="kity_text_197" text-rendering="inherit" font-size="12" dy=".8em" y="403.7000055909157" x="737.500007301569">随机模型(stochastic model)</text></g></g><g id="minder_node25"><g id="node_expander24" style="cursor: pointer;" display="none"><path id="kity_path_226" fill="white" stroke="gray" d="M209.49998888373375,101.49999630451202A6,6,0,1,1,197.49998888373375,101.49999630451202A6,6,0,1,1,209.49998888373375,101.49999630451202"></path><path id="kity_path_227" fill="none" stroke="gray"></path></g><path id="node_outline25" fill="none" stroke="none" d="M119.49998888373375,92.49999630451202h73a5,5,0,0,1,5,5v8a5,5,0,0,1,-5,5h-73a5,5,0,0,1,-5,-5v-8a5,5,0,0,1,5,-5z" stroke-width="3"></path><g id="node_text25" fill="black"><text id="kity_text_223" text-rendering="inherit" font-size="12" dy=".8em" y="93.69999635219574" x="119.49998888373375">率模(profust)</text></g></g><g id="minder_node26"><g id="node_expander25" style="cursor: pointer;" display="none"><path id="kity_path_234" fill="white" stroke="gray" d="M209.49998900294304,127.4999970793724A6,6,0,1,1,197.49998900294304,127.4999970793724A6,6,0,1,1,209.49998900294304,127.4999970793724"></path><path id="kity_path_235" fill="none" stroke="gray"></path></g><path id="node_outline26" fill="none" stroke="none" d="M123.49998900294304,118.4999970793724h69a5,5,0,0,1,5,5v8a5,5,0,0,1,-5,5h-69a5,5,0,0,1,-5,-5v-8a5,5,0,0,1,5,-5z" stroke-width="3"></path><g id="node_text26" fill="black"><text id="kity_text_231" text-rendering="inherit" font-size="12" dy=".8em" y="119.69999712705612" x="123.49998900294304">其他(others)</text></g></g><g id="minder_node23"><g id="node_expander22" style="cursor: pointer;"><path id="kity_path_208" fill="white" stroke="gray" d="M362.49999183416367,114.49999669194221A6,6,0,1,1,350.49999183416367,114.49999669194221A6,6,0,1,1,362.49999183416367,114.49999669194221"></path><path id="kity_path_209" fill="none" stroke="gray" d="M351.99999183416367,114.49999669194221L360.99999183416367,114.49999669194221"></path></g><path id="node_outline23" fill="none" stroke="none" d="M218.49999183416367,96.49999669194221h127a5,5,0,0,1,5,5v26a5,5,0,0,1,-5,5h-127a5,5,0,0,1,-5,-5v-26a5,5,0,0,1,5,-5z" stroke-width="3"></path><g id="node_text23" fill="black"><text id="kity_text_205" text-rendering="inherit" font-size="12" dy=".8em" y="97.69999673962593" x="218.49999183416367">属性评估</text><text id="kity_text_210" text-rendering="inherit" font-size="12" dy=".8em" y="115.69999673962593" x="218.49999183416367">(property assessment)</text></g></g><g id="minder_node27"><g id="node_expander26" style="cursor: pointer;" display="none"><path id="kity_path_242" fill="white" stroke="gray" d="M225.4999879002571,162.4999981224537A6,6,0,1,1,213.4999879002571,162.4999981224537A6,6,0,1,1,225.4999879002571,162.4999981224537"></path><path id="kity_path_243" fill="none" stroke="gray"></path></g><path id="node_outline27" fill="none" stroke="none" d="M86.49998790025711,144.4999981224537h122a5,5,0,0,1,5,5v26a5,5,0,0,1,-5,5h-122a5,5,0,0,1,-5,-5v-26a5,5,0,0,1,5,-5z" stroke-width="3"></path><g id="node_text27" fill="black"><text id="kity_text_239" text-rendering="inherit" font-size="12" dy=".8em" y="145.6999981701374" x="86.49998790025711">层次分析</text><text id="kity_text_244" text-rendering="inherit" font-size="12" dy=".8em" y="163.6999981701374" x="86.49998790025711">(hierarchical analysis)</text></g></g><g id="minder_node28"><g id="node_expander27" style="cursor: pointer;" display="none"><path id="kity_path_251" fill="white" stroke="gray" d="M225.49998608231544,206.49999943375587A6,6,0,1,1,213.49998608231544,206.49999943375587A6,6,0,1,1,225.49998608231544,206.49999943375587"></path><path id="kity_path_252" fill="none" stroke="gray"></path></g><path id="node_outline28" fill="none" stroke="none" d="M25.499986082315445,188.49999943375587h183a5,5,0,0,1,5,5v26a5,5,0,0,1,-5,5h-183a5,5,0,0,1,-5,-5v-26a5,5,0,0,1,5,-5z" stroke-width="3"></path><g id="node_text28" fill="black"><text id="kity_text_248" text-rendering="inherit" font-size="12" dy=".8em" y="189.6999994814396" x="25.499986082315445">基于可控度模型</text><text id="kity_text_253" text-rendering="inherit" font-size="12" dy=".8em" y="207.6999994814396" x="25.499986082315445">(based on controllability model)</text></g></g><g id="minder_node29"><g id="node_expander28" style="cursor: pointer;" display="none"><path id="kity_path_260" fill="white" stroke="gray" d="M225.49998864531517,241.50000047683716A6,6,0,1,1,213.49998864531517,241.50000047683716A6,6,0,1,1,225.49998864531517,241.50000047683716"></path><path id="kity_path_261" fill="none" stroke="gray"></path></g><path id="node_outline29" fill="none" stroke="none" d="M111.49998864531517,232.50000047683716h97a5,5,0,0,1,5,5v8a5,5,0,0,1,-5,5h-97a5,5,0,0,1,-5,-5v-8a5,5,0,0,1,5,-5z" stroke-width="3"></path><g id="node_text29" fill="black"><text id="kity_text_257" text-rendering="inherit" font-size="12" dy=".8em" y="233.70000052452087" x="111.49998864531517">故障树(fault tree)</text></g></g><g id="minder_node30"><g id="node_expander29" style="cursor: pointer;" display="none"><path id="kity_path_268" fill="white" stroke="gray" d="M225.4999880194664,267.50000125169754A6,6,0,1,1,213.4999880194664,267.50000125169754A6,6,0,1,1,225.4999880194664,267.50000125169754"></path><path id="kity_path_269" fill="none" stroke="gray"></path></g><path id="node_outline30" fill="none" stroke="none" d="M90.4999880194664,258.50000125169754h118a5,5,0,0,1,5,5v8a5,5,0,0,1,-5,5h-118a5,5,0,0,1,-5,-5v-8a5,5,0,0,1,5,-5z" stroke-width="3"></path><g id="node_text30" fill="black"><text id="kity_text_265" text-rendering="inherit" font-size="12" dy=".8em" y="259.70000129938126" x="90.4999880194664">其他(physical model)</text></g></g><g id="minder_node24"><g id="node_expander23" style="cursor: pointer;"><path id="kity_path_217" fill="white" stroke="gray" d="M362.4999923110008,210.49999955296516A6,6,0,1,1,350.4999923110008,210.49999955296516A6,6,0,1,1,362.4999923110008,210.49999955296516"></path><path id="kity_path_218" fill="none" stroke="gray" d="M351.9999923110008,210.49999955296516L360.9999923110008,210.49999955296516"></path></g><path id="node_outline24" fill="none" stroke="none" d="M234.49999231100082,192.49999955296516h111a5,5,0,0,1,5,5v26a5,5,0,0,1,-5,5h-111a5,5,0,0,1,-5,-5v-26a5,5,0,0,1,5,-5z" stroke-width="3"></path><g id="node_text24" fill="black"><text id="kity_text_214" text-rendering="inherit" font-size="12" dy=".8em" y="193.69999960064888" x="234.49999231100082">系统评估</text><text id="kity_text_219" text-rendering="inherit" font-size="12" dy=".8em" y="211.69999960064888" x="234.49999231100082">(system evaluation)</text></g></g></g></g></svg>